<svg id="visual" viewBox="0 0 1200 600" width="1200" height="600" xmlns="http://www.w3.org/2000/svg" xmlns:xlink="http://www.w3.org/1999/xlink" version="1.1"><rect x="0" y="0" width="1200" height="600" fill="#000000"></rect><path d="M0 211L28.5 213.2C57 215.3 114 219.7 171.2 222.3C228.3 225 285.7 226 342.8 223.7C400 221.3 457 215.7 514.2 215.2C571.3 214.7 628.7 219.3 685.8 214.2C743 209 800 194 857.2 192.3C914.3 190.7 971.7 202.3 1028.8 205.8C1086 209.3 1143 204.7 1171.5 202.3L1200 200L1200 0L1171.5 0C1143 0 1086 0 1028.8 0C971.7 0 914.3 0 857.2 0C800 0 743 0 685.8 0C628.7 0 571.3 0 514.2 0C457 0 400 0 342.8 0C285.7 0 228.3 0 171.2 0C114 0 57 0 28.5 0L0 0Z" fill="#ffffff"></path><path d="M0 167L28.5 178.2C57 189.3 114 211.7 171.2 218.7C228.3 225.7 285.7 217.3 342.8 209.8C400 202.3 457 195.7 514.2 194.2C571.3 192.7 628.7 196.3 685.8 194C743 191.7 800 183.3 857.2 181.3C914.3 179.3 971.7 183.7 1028.8 186.5C1086 189.3 1143 190.7 1171.5 191.3L1200 192L1200 0L1171.5 0C1143 0 1086 0 1028.8 0C971.7 0 914.3 0 857.2 0C800 0 743 0 685.8 0C628.7 0 571.3 0 514.2 0C457 0 400 0 342.8 0C285.7 0 228.3 0 171.2 0C114 0 57 0 28.5 0L0 0Z" fill="#eef6f8"></path><path d="M0 204L28.5 201.8C57 199.7 114 195.3 171.2 186.7C228.3 178 285.7 165 342.8 163.7C400 162.3 457 172.7 514.2 181.8C571.3 191 628.7 199 685.8 192.3C743 185.7 800 164.3 857.2 164.8C914.3 165.3 971.7 187.7 1028.8 191C1086 194.3 1143 178.7 1171.5 170.8L1200 163L1200 0L1171.5 0C1143 0 1086 0 1028.8 0C971.7 0 914.3 0 857.2 0C800 0 743 0 685.8 0C628.7 0 571.3 0 514.2 0C457 0 400 0 342.8 0C285.7 0 228.3 0 171.2 0C114 0 57 0 28.5 0L0 0Z" fill="#ddeef0"></path><path d="M0 187L28.5 186.7C57 186.3 114 185.7 171.2 175.8C228.3 166 285.7 147 342.8 141.2C400 135.3 457 142.7 514.2 153C571.3 163.3 628.7 176.7 685.8 179.5C743 182.3 800 174.7 857.2 170.5C914.3 166.3 971.7 165.7 1028.8 165.3C1086 165 1143 165 1171.5 165L1200 165L1200 0L1171.5 0C1143 0 1086 0 1028.8 0C971.7 0 914.3 0 857.2 0C800 0 743 0 685.8 0C628.7 0 571.3 0 514.2 0C457 0 400 0 342.8 0C285.7 0 228.3 0 171.2 0C114 0 57 0 28.5 0L0 0Z" fill="#cbe5e9"></path><path d="M0 174L28.5 169C57 164 114 154 171.2 147.3C228.3 140.7 285.7 137.3 342.8 132C400 126.7 457 119.3 514.2 116.8C571.3 114.3 628.7 116.7 685.8 121.3C743 126 800 133 857.2 136.2C914.3 139.3 971.7 138.7 1028.8 134.5C1086 130.3 1143 122.7 1171.5 118.8L1200 115L1200 0L1171.5 0C1143 0 1086 0 1028.8 0C971.7 0 914.3 0 857.2 0C800 0 743 0 685.8 0C628.7 0 571.3 0 514.2 0C457 0 400 0 342.8 0C285.7 0 228.3 0 171.2 0C114 0 57 0 28.5 0L0 0Z" fill="#badde2"></path><path d="M0 123L28.5 120.3C57 117.7 114 112.3 171.2 115.7C228.3 119 285.7 131 342.8 135C400 139 457 135 514.2 136.3C571.3 137.7 628.7 144.3 685.8 139.5C743 134.7 800 118.3 857.2 111.5C914.3 104.7 971.7 107.3 1028.8 108.8C1086 110.3 1143 110.7 1171.5 110.8L1200 111L1200 0L1171.5 0C1143 0 1086 0 1028.8 0C971.7 0 914.3 0 857.2 0C800 0 743 0 685.8 0C628.7 0 571.3 0 514.2 0C457 0 400 0 342.8 0C285.7 0 228.3 0 171.2 0C114 0 57 0 28.5 0L0 0Z" fill="#a8d4db"></path><path d="M0 100L28.5 98.2C57 96.3 114 92.7 171.2 90.2C228.3 87.7 285.7 86.3 342.8 92C400 97.7 457 110.3 514.2 113.7C571.3 117 628.7 111 685.8 110.5C743 110 800 115 857.2 118C914.3 121 971.7 122 1028.8 120.5C1086 119 1143 115 1171.5 113L1200 111L1200 0L1171.5 0C1143 0 1086 0 1028.8 0C971.7 0 914.3 0 857.2 0C800 0 743 0 685.8 0C628.7 0 571.3 0 514.2 0C457 0 400 0 342.8 0C285.7 0 228.3 0 171.2 0C114 0 57 0 28.5 0L0 0Z" fill="#96ccd3"></path><path d="M0 100L28.5 98.2C57 96.3 114 92.7 171.2 92.5C228.3 92.3 285.7 95.7 342.8 92.5C400 89.3 457 79.7 514.2 78.8C571.3 78 628.7 86 685.8 89.3C743 92.7 800 91.3 857.2 89.5C914.3 87.7 971.7 85.3 1028.8 85.3C1086 85.3 1143 87.7 1171.5 88.8L1200 90L1200 0L1171.5 0C1143 0 1086 0 1028.8 0C971.7 0 914.3 0 857.2 0C800 0 743 0 685.8 0C628.7 0 571.3 0 514.2 0C457 0 400 0 342.8 0C285.7 0 228.3 0 171.2 0C114 0 57 0 28.5 0L0 0Z" fill="#83c3cc"></path><path d="M0 81L28.5 81.5C57 82 114 83 171.2 84.7C228.3 86.3 285.7 88.7 342.8 85.7C400 82.7 457 74.3 514.2 73.8C571.3 73.3 628.7 80.7 685.8 81.7C743 82.7 800 77.3 857.2 74.7C914.3 72 971.7 72 1028.8 74.7C1086 77.3 1143 82.7 1171.5 85.3L1200 88L1200 0L1171.5 0C1143 0 1086 0 1028.8 0C971.7 0 914.3 0 857.2 0C800 0 743 0 685.8 0C628.7 0 571.3 0 514.2 0C457 0 400 0 342.8 0C285.7 0 228.3 0 171.2 0C114 0 57 0 28.5 0L0 0Z" fill="#6fbbc5"></path><path d="M0 48L28.5 52.2C57 56.3 114 64.7 171.2 66.8C228.3 69 285.7 65 342.8 63.5C400 62 457 63 514.2 62.5C571.3 62 628.7 60 685.8 57.2C743 54.3 800 50.7 857.2 48.8C914.3 47 971.7 47 1028.8 48.8C1086 50.7 1143 54.3 1171.5 56.2L1200 58L1200 0L1171.5 0C1143 0 1086 0 1028.8 0C971.7 0 914.3 0 857.2 0C800 0 743 0 685.8 0C628.7 0 571.3 0 514.2 0C457 0 400 0 342.8 0C285.7 0 228.3 0 171.2 0C114 0 57 0 28.5 0L0 0Z" fill="#59b3be"></path><path d="M0 34L28.5 34.7C57 35.3 114 36.7 171.2 37.5C228.3 38.3 285.7 38.7 342.8 39.3C400 40 457 41 514.2 40C571.3 39 628.7 36 685.8 35.2C743 34.3 800 35.7 857.2 35.8C914.3 36 971.7 35 1028.8 35.5C1086 36 1143 38 1171.5 39L1200 40L1200 0L1171.5 0C1143 0 1086 0 1028.8 0C971.7 0 914.3 0 857.2 0C800 0 743 0 685.8 0C628.7 0 571.3 0 514.2 0C457 0 400 0 342.8 0C285.7 0 228.3 0 171.2 0C114 0 57 0 28.5 0L0 0Z" fill="#3eaab7"></path><path d="M0 11L28.5 13.7C57 16.3 114 21.7 171.2 22.2C228.3 22.7 285.7 18.3 342.8 18.7C400 19 457 24 514.2 25.2C571.3 26.3 628.7 23.7 685.8 22.8C743 22 800 23 857.2 24.2C914.3 25.3 971.7 26.7 1028.8 27C1086 27.3 1143 26.7 1171.5 26.3L1200 26L1200 0L1171.5 0C1143 0 1086 0 1028.8 0C971.7 0 914.3 0 857.2 0C800 0 743 0 685.8 0C628.7 0 571.3 0 514.2 0C457 0 400 0 342.8 0C285.7 0 228.3 0 171.2 0C114 0 57 0 28.5 0L0 0Z" fill="#12a2b0"></path></svg>